<svg xmlns="http://www.w3.org/2000/svg" width="1600" height="960" viewBox="0 0 1600 960">
  <defs>
    <marker id="arrow" markerWidth="12" markerHeight="12" refX="10" refY="6" orient="auto" markerUnits="strokeWidth">
      <path d="M2,2 L10,6 L2,10 Z" fill="#9aa4b2"/>
    </marker>
    <style>
      .bg { fill: #111318; }
      .node { fill: #1d222b; stroke: #3b4658; stroke-width: 2; rx: 10; }
      .node-green { fill: #143525; stroke: #2d8c57; stroke-width: 2; rx: 10; }
      .node-blue { fill: #162d45; stroke: #3f84c5; stroke-width: 2; rx: 10; }
      .node-orange { fill: #352414; stroke: #d38a2e; stroke-width: 2; rx: 10; }
      .node-purple { fill: #2a203b; stroke: #8f64cc; stroke-width: 2; rx: 10; }
      .title { fill: #f2f5f8; font: 700 18px Arial, sans-serif; }
      .text { fill: #d6dbe3; font: 14px Arial, sans-serif; }
      .small { fill: #aeb7c3; font: 13px Arial, sans-serif; }
      .wire { fill: none; stroke: #9aa4b2; stroke-width: 3; marker-end: url(#arrow); }
      .wire-bbox { fill: none; stroke: #66c2ff; stroke-width: 4; marker-end: url(#arrow); }
      .wire-cond { fill: none; stroke: #f3c623; stroke-width: 3; marker-end: url(#arrow); }
      .wire-lora { fill: none; stroke: #c59cff; stroke-width: 4; marker-end: url(#arrow); }
      .wire-sample { fill: none; stroke: #f48fb1; stroke-width: 4; marker-end: url(#arrow); }
      .tag { fill: #0f141b; stroke: #4a5568; stroke-width: 1; rx: 6; }
      .tagtext { fill: #cbd5e1; font: 12px Arial, sans-serif; }
    </style>
  </defs>
  <rect class="bg" x="0" y="0" width="1600" height="960"/>
  <text class="title" x="40" y="48">K2 Regional LoRA test workflow: two KJ bboxes, two character LoRAs, one regional sampler</text>

  <rect class="node-orange" x="40" y="100" width="420" height="250"/>
  <text class="title" x="64" y="132">Ideogram 4 Prompt Builder KJ</text>
  <text class="text" x="64" y="166">high_level_description:</text>
  <text class="small" x="64" y="190">Two separate full-body people: lface woman inside</text>
  <text class="small" x="64" y="210">the left bbox, sface man inside the right bbox.</text>
  <text class="small" x="64" y="230">Keep their faces distinct and do not merge identities.</text>
  <text class="text" x="64" y="268">background:</text>
  <text class="small" x="64" y="292">Simple indoor studio room, neutral walls, space</text>
  <text class="small" x="64" y="312">between subjects, natural window light.</text>
  <rect class="tag" x="64" y="328" width="142" height="28"/>
  <text class="tagtext" x="76" y="347">bboxes: BOUNDING_BOX</text>

  <rect class="node-green" x="40" y="440" width="220" height="84"/>
  <text class="title" x="62" y="474">Load Diffusion Model</text>
  <text class="small" x="62" y="500">turbo.safetensors</text>

  <rect class="node-green" x="40" y="560" width="220" height="84"/>
  <text class="title" x="62" y="594">Load CLIP</text>
  <text class="small" x="62" y="620">qwen3vl / krea2</text>

  <rect class="node-green" x="40" y="680" width="220" height="84"/>
  <text class="title" x="62" y="714">Empty Latent</text>
  <text class="small" x="62" y="740">1024 x 1024</text>

  <rect class="node-green" x="40" y="800" width="220" height="84"/>
  <text class="title" x="62" y="834">Load VAE</text>
  <text class="small" x="62" y="860">qwen_image_vae</text>

  <rect class="node-blue" x="560" y="90" width="270" height="134"/>
  <text class="title" x="584" y="124">BBox 1 -&gt; lface region</text>
  <text class="small" x="584" y="154">input: KJ bboxes</text>
  <text class="small" x="584" y="178">bbox_index = 1</text>
  <text class="small" x="584" y="202">feather_px = 32</text>

  <rect class="node-blue" x="560" y="270" width="270" height="134"/>
  <text class="title" x="584" y="304">BBox 2 -&gt; sface region</text>
  <text class="small" x="584" y="334">input: KJ bboxes</text>
  <text class="small" x="584" y="358">bbox_index = 2</text>
  <text class="small" x="584" y="382">feather_px = 32</text>

  <rect class="node" x="540" y="500" width="350" height="160"/>
  <text class="title" x="564" y="534">Base Positive Prompt</text>
  <text class="small" x="564" y="564">Prompt is linked from KJ prompt output.</text>
  <text class="small" x="564" y="590">Dummy fallback text:</text>
  <text class="small" x="564" y="614">lface woman in the left bbox, sface man in the</text>
  <text class="small" x="564" y="634">right bbox, two separate people, distinct faces.</text>

  <rect class="node" x="540" y="700" width="350" height="118"/>
  <text class="title" x="564" y="734">Shared Negative Prompt</text>
  <text class="small" x="564" y="764">blended faces, merged identities, same face</text>
  <text class="small" x="564" y="784">on both people, duplicate person, extra limbs.</text>

  <rect class="node-purple" x="980" y="82" width="280" height="150"/>
  <text class="title" x="1004" y="116">lface LoRA</text>
  <text class="small" x="1004" y="146">region: bbox 1</text>
  <text class="small" x="1004" y="170">positive: base positive</text>
  <text class="small" x="1004" y="194">negative: shared negative</text>
  <text class="small" x="1004" y="216">lora: krearaw_merged</text>

  <rect class="node-purple" x="980" y="270" width="280" height="150"/>
  <text class="title" x="1004" y="304">sface LoRA</text>
  <text class="small" x="1004" y="334">region: bbox 2</text>
  <text class="small" x="1004" y="358">positive: base positive</text>
  <text class="small" x="1004" y="382">negative: shared negative</text>
  <text class="small" x="1004" y="404">lora: sface_merge</text>

  <rect class="node-purple" x="1320" y="178" width="230" height="118"/>
  <text class="title" x="1342" y="212">LoRA Stack</text>
  <text class="small" x="1342" y="242">regional_lora_1 = lface</text>
  <text class="small" x="1342" y="264">regional_lora_2 = sface</text>
  <text class="small" x="1342" y="286">overlap_mode = normalize</text>

  <rect class="node-purple" x="1030" y="540" width="330" height="210"/>
  <text class="title" x="1054" y="574">Regional Sampler</text>
  <text class="small" x="1054" y="604">execution_mode = auto</text>
  <text class="small" x="1054" y="628">layer_injection_targets = attn_out_mlp</text>
  <text class="small" x="1054" y="652">outside_strength = 0.0</text>
  <text class="small" x="1054" y="676">text_token_strength = 0.0</text>
  <text class="small" x="1054" y="700">pin_outside_regions = true</text>
  <text class="small" x="1054" y="724">final_latent_pin = true</text>

  <rect class="node-blue" x="1030" y="805" width="330" height="90"/>
  <text class="title" x="1054" y="840">Decode Composite</text>
  <text class="small" x="1054" y="868">regional samples + base samples + union mask</text>

  <rect class="node-green" x="1420" y="810" width="150" height="78"/>
  <text class="title" x="1440" y="844">Preview</text>
  <text class="small" x="1440" y="870">final image</text>

  <rect class="node" x="1320" y="370" width="230" height="98"/>
  <text class="title" x="1342" y="404">Layer Apply Node</text>
  <text class="small" x="1342" y="432">Left disconnected here.</text>
  <text class="small" x="1342" y="454">Sampler auto mode owns fallback.</text>

  <path class="wire-bbox" d="M460 342 C505 342 505 157 560 157"/>
  <path class="wire-bbox" d="M460 342 C505 342 505 337 560 337"/>
  <path class="wire-cond" d="M460 150 C500 150 500 560 540 560"/>
  <path class="wire-cond" d="M260 602 C390 602 410 560 540 560"/>
  <path class="wire-cond" d="M260 602 C390 602 410 748 540 748"/>
  <path class="wire" d="M260 722 C430 722 395 176 560 176"/>
  <path class="wire" d="M260 722 C430 722 395 356 560 356"/>
  <path class="wire" d="M260 482 C610 482 770 575 1030 575"/>
  <path class="wire" d="M260 722 C670 722 760 688 1030 688"/>
  <path class="wire" d="M260 842 C770 842 815 850 1030 850"/>
  <path class="wire-lora" d="M830 157 C900 157 910 157 980 157"/>
  <path class="wire-lora" d="M830 337 C900 337 910 345 980 345"/>
  <path class="wire-cond" d="M890 580 C928 580 928 170 980 170"/>
  <path class="wire-cond" d="M890 580 C928 580 928 358 980 358"/>
  <path class="wire-cond" d="M890 758 C940 758 940 194 980 194"/>
  <path class="wire-cond" d="M890 758 C940 758 940 382 980 382"/>
  <path class="wire-lora" d="M1260 157 C1300 157 1290 210 1320 210"/>
  <path class="wire-lora" d="M1260 345 C1300 345 1290 264 1320 264"/>
  <path class="wire-lora" d="M1435 296 C1435 470 1360 646 1360 646"/>
  <path class="wire-cond" d="M890 580 C950 580 950 620 1030 620"/>
  <path class="wire-cond" d="M890 758 C950 758 950 658 1030 658"/>
  <path class="wire-sample" d="M1195 750 C1195 775 1195 785 1195 805"/>
  <path class="wire-sample" d="M1360 850 C1385 850 1395 850 1420 850"/>
</svg>
